<?xml version="1.0" encoding="UTF-8" standalone="no"?>
<svg
   viewBox="0 0 512 512"
   version="1.1"
   id="svg826"
   sodipodi:docname="Adiciona.svg"
   width="512"
   height="512"
   inkscape:version="1.1 (c68e22c387, 2021-05-23)"
   inkscape:export-filename="D:\repos\HSA_Estoque48\Adiciona16x16.png"
   inkscape:export-xdpi="3"
   inkscape:export-ydpi="3"
   xmlns:inkscape="http://www.inkscape.org/namespaces/inkscape"
   xmlns:sodipodi="http://sodipodi.sourceforge.net/DTD/sodipodi-0.dtd"
   xmlns="http://www.w3.org/2000/svg"
   xmlns:svg="http://www.w3.org/2000/svg">
  <defs
     id="defs830" />
  <sodipodi:namedview
     id="namedview828"
     pagecolor="#373737"
     bordercolor="#666666"
     borderopacity="1.0"
     inkscape:pageshadow="2"
     inkscape:pageopacity="0"
     inkscape:pagecheckerboard="0"
     showgrid="false"
     inkscape:zoom="1.5800781"
     inkscape:cx="224.03956"
     inkscape:cy="256"
     inkscape:window-width="2560"
     inkscape:window-height="1017"
     inkscape:window-x="1358"
     inkscape:window-y="-8"
     inkscape:window-maximized="1"
     inkscape:current-layer="svg826" />
  <!--! Font Awesome Free 6.1.1 by @fontawesome - https://fontawesome.com License - https://fontawesome.com/license/free (Icons: CC BY 4.0, Fonts: SIL OFL 1.1, Code: MIT License) Copyright 2022 Fonticons, Inc. -->
  <path
     id="path824"
     style="stroke-width:1.20253;stroke:none;fill:#0f0f0f;fill-opacity:1"
     d="M 255.00476,0.01596528 C 241.89175,0.22134648 229.0532,6.6792885 221.04292,17.059755 c -6.26739,8.003491 -9.65433,18.205011 -9.37544,28.370643 -0.0189,55.410262 -0.006,110.820532 -0.01,166.230782 -56.23284,4.9e-4 -112.466054,-0.0108 -168.698679,0.0261 -12.827503,0.318 -25.340559,6.60851 -33.2921357,16.67288 -7.014852,8.7779 -10.52133723,20.28419 -9.48905913,31.48271 0.94688103,11.18097 6.31612813,21.92477 14.75078483,29.33684 8.119617,7.21766 18.954089,11.33649 29.831958,11.15884 34.680864,0.0233 69.362271,0.004 104.043351,0.0104 20.95126,0 41.90252,0 62.85378,0 4.9e-4,56.23431 -0.0108,112.46899 0.0261,168.70309 0.32025,13.04114 6.8228,25.75898 17.18571,33.67831 8.79915,6.82837 20.23108,10.16485 31.32144,9.06247 11.08598,-1.03005 21.71041,-6.39904 29.04975,-14.78314 7.14626,-8.08091 11.24496,-18.82785 11.08826,-29.63217 0.031,-21.534 0.006,-43.06855 0.0142,-64.60278 0,-34.14193 0,-68.28385 0,-102.42578 56.23779,-4.5e-4 112.47606,0.0107 168.71358,-0.026 12.86262,-0.32375 25.40822,-6.65605 33.34491,-16.77787 7.12419,-8.94693 10.58035,-20.72056 9.35611,-32.09842 -1.11887,-11.12997 -6.6157,-21.76231 -15.12854,-29.03349 -8.04946,-6.95621 -18.66261,-10.90226 -29.3134,-10.73874 -25.35917,-0.0292 -50.71885,-0.006 -76.07824,-0.0132 -30.29814,0 -60.59629,0 -90.89442,0 -5e-4,-56.23431 0.0108,-112.468989 -0.0261,-168.703079 C 299.99877,30.13021 293.71088,17.612508 283.64109,9.6649887 275.607,3.2493486 265.29027,-0.26849462 255.0041,0.01601488 Z" />
</svg>
