<?xml version="1.0" encoding="UTF-8" standalone="no"?>
<svg
   viewBox="0 0 512 512"
   version="1.1"
   id="svg10677"
   sodipodi:docname="CadastrarProduto.svg"
   width="512"
   height="512"
   inkscape:version="1.1 (c68e22c387, 2021-05-23)"
   inkscape:export-filename="D:\repos\HSA_Estoque48\CadastrarProduto32x32.png"
   inkscape:export-xdpi="6"
   inkscape:export-ydpi="6"
   xmlns:inkscape="http://www.inkscape.org/namespaces/inkscape"
   xmlns:sodipodi="http://sodipodi.sourceforge.net/DTD/sodipodi-0.dtd"
   xmlns="http://www.w3.org/2000/svg"
   xmlns:svg="http://www.w3.org/2000/svg">
  <defs
     id="defs10681" />
  <sodipodi:namedview
     id="namedview10679"
     pagecolor="#373737"
     bordercolor="#666666"
     borderopacity="1.0"
     inkscape:pageshadow="2"
     inkscape:pageopacity="0"
     inkscape:pagecheckerboard="0"
     showgrid="false"
     inkscape:zoom="0.8125"
     inkscape:cx="-116.92308"
     inkscape:cy="280"
     inkscape:window-width="2560"
     inkscape:window-height="1017"
     inkscape:window-x="1358"
     inkscape:window-y="-8"
     inkscape:window-maximized="1"
     inkscape:current-layer="svg10677" />
  <!--! Font Awesome Free 6.1.1 by @fontawesome - https://fontawesome.com License - https://fontawesome.com/license/free (Icons: CC BY 4.0, Fonts: SIL OFL 1.1, Code: MIT License) Copyright 2022 Fonticons, Inc. -->
  <path
     id="path10675"
     style="fill:#ffffff;fill-opacity:1;stroke:none;stroke-opacity:1"
     d="M 256 0 C 132.3 0 32 35.82 32 80 L 32 128 C 32 172.2 132.3 208 256 208 C 379.7 208 480 172.2 480 128 L 480 80 C 480 35.82 379.7 0 256 0 z M 32 186.09961 L 32 288 C 32 329.09429 118.71655 362.90924 230.31445 367.46094 C 235.32001 360.68697 243.33092 356.1105 251.78516 355.6582 C 275.71743 355.55 299.65108 355.59489 323.58398 355.58789 C 323.58399 333.61828 323.58398 311.6493 323.58398 289.67969 C 323.38474 284.68075 323.74653 279.54233 325.67969 274.87305 C 329.78637 264.28424 340.71605 256.80048 352.06836 256.76758 C 355.42675 256.72616 358.7925 257.25989 361.9668 258.35938 C 372.73986 261.9247 380.74626 272.46578 381.3457 283.78906 C 381.45618 307.29008 381.41099 330.79301 381.41602 354.29492 C 440.89709 339.91614 480 315.59641 480 288 L 480 186.09961 C 465.1 197.79961 445.09922 207.29922 425.19922 214.69922 C 380.29922 230.69922 320.5 240 256 240 C 191.5 240 131.65961 230.69922 86.849609 214.69922 C 66.019609 207.29922 46.93 197.79961 32 186.09961 z M 32 346.09961 L 32 432 C 32 476.2 132.3 512 256 512 C 284.04735 512 310.86828 510.14279 335.61328 506.78125 C 328.7588 501.78556 324.11052 493.73493 323.6543 485.2207 C 323.5494 461.28843 323.58998 437.35478 323.58398 413.42188 C 300.75329 413.41818 277.92249 413.41416 255.0918 413.41016 C 246.5021 413.84827 237.82656 410.19173 232.11328 403.76953 C 230.896 402.44229 229.88045 400.96445 228.95898 399.42969 C 174.88995 397.21597 125.32278 388.43657 86.849609 374.69922 C 66.019609 367.29922 46.93 357.79961 32 346.09961 z M 480 346.09961 C 474.67847 350.27826 468.68649 354.16515 462.30078 357.78711 C 466.43543 359.49071 470.19183 362.11135 473.12891 365.49219 C 477.08992 369.92835 479.3906 375.6445 480 381.53516 L 480 346.09961 z M 480 387.76562 C 479.75373 390.02295 479.28757 392.25549 478.50195 394.39062 C 474.80103 404.95391 464.3922 412.75542 453.2168 413.34961 C 429.2848 413.46201 405.35083 413.41487 381.41797 413.42188 C 381.41357 436.21444 381.41125 459.00626 381.40625 481.79883 C 381.73894 488.01324 379.916 494.26864 376.46875 499.43359 C 438.70098 485.22498 480 460.34935 480 432 L 480 387.76562 z " />
</svg>
