<?xml version="1.0" encoding="UTF-8" standalone="no"?>
<svg
   viewBox="0 0 512 512"
   version="1.1"
   id="svg898"
   sodipodi:docname="Editar.svg"
   width="512"
   height="512"
   inkscape:version="1.1 (c68e22c387, 2021-05-23)"
   inkscape:export-filename="D:\repos\HSA_Estoque48\Editar16x16.png"
   inkscape:export-xdpi="3"
   inkscape:export-ydpi="3"
   xmlns:inkscape="http://www.inkscape.org/namespaces/inkscape"
   xmlns:sodipodi="http://sodipodi.sourceforge.net/DTD/sodipodi-0.dtd"
   xmlns="http://www.w3.org/2000/svg"
   xmlns:svg="http://www.w3.org/2000/svg">
  <defs
     id="defs902" />
  <sodipodi:namedview
     id="namedview900"
     pagecolor="#373737"
     bordercolor="#666666"
     borderopacity="1.0"
     inkscape:pageshadow="2"
     inkscape:pageopacity="0"
     inkscape:pagecheckerboard="0"
     showgrid="false"
     inkscape:zoom="1.5800781"
     inkscape:cx="224.03956"
     inkscape:cy="256"
     inkscape:window-width="2560"
     inkscape:window-height="1017"
     inkscape:window-x="1358"
     inkscape:window-y="-8"
     inkscape:window-maximized="1"
     inkscape:current-layer="svg898" />
  <!--! Font Awesome Free 6.1.1 by @fontawesome - https://fontawesome.com License - https://fontawesome.com/license/free (Icons: CC BY 4.0, Fonts: SIL OFL 1.1, Code: MIT License) Copyright 2022 Fonticons, Inc. -->
  <path
     d="M 494.97143,110.97143 399.08571,15.085714 C 391.2,7.222857 373.82857,0 361.25714,0 H 73.142857 C 32.742857,0 0,32.742857 0,73.14286 V 438.85714 C 0,479.25714 32.742857,512 73.142857,512 H 438.85714 C 479.25714,512 512,479.25714 512,438.85714 V 150.74286 C 512,138.17143 504.8,120.8 494.97143,110.97143 Z M 256,438.85714 c -40.38857,0 -73.14286,-32.75428 -73.14286,-73.14285 0,-40.38858 32.75429,-73.14286 73.14286,-73.14286 40.38857,0 73.14286,32.75428 73.14286,73.14286 0,40.38857 -32.8,73.14285 -73.14286,73.14285 z M 365.71429,201.14286 c 0,10.05714 -8.22858,18.28571 -18.28572,18.28571 H 91.428571 c -10.102857,0 -18.285714,-8.22857 -18.285714,-18.28571 V 91.42857 c 0,-10.05714 8.182857,-18.28571 18.285714,-18.28571 H 347.42857 c 10.05714,0 18.28572,8.22857 18.28572,18.28571 z"
     id="path896"
     style="stroke-width:1.14286;stroke:none;fill:#0f0f0f;fill-opacity:1" />
</svg>
