<?xml version="1.0" encoding="UTF-8" standalone="no"?>
<svg
   viewBox="0 0 512 512"
   version="1.1"
   id="svg11445"
   sodipodi:docname="EditarProduto.svg"
   inkscape:version="1.1 (c68e22c387, 2021-05-23)"
   width="512"
   height="512"
   inkscape:export-filename="D:\repos\HSA_Estoque48\EditarProduto32x32.png"
   inkscape:export-xdpi="6"
   inkscape:export-ydpi="6"
   xmlns:inkscape="http://www.inkscape.org/namespaces/inkscape"
   xmlns:sodipodi="http://sodipodi.sourceforge.net/DTD/sodipodi-0.dtd"
   xmlns="http://www.w3.org/2000/svg"
   xmlns:svg="http://www.w3.org/2000/svg">
  <defs
     id="defs11449" />
  <sodipodi:namedview
     id="namedview11447"
     pagecolor="#373737"
     bordercolor="#666666"
     borderopacity="1.0"
     inkscape:pageshadow="2"
     inkscape:pageopacity="0"
     inkscape:pagecheckerboard="0"
     showgrid="false"
     inkscape:zoom="0.8125"
     inkscape:cx="494.76923"
     inkscape:cy="335.38462"
     inkscape:window-width="2560"
     inkscape:window-height="1017"
     inkscape:window-x="1358"
     inkscape:window-y="-8"
     inkscape:window-maximized="1"
     inkscape:current-layer="svg11445" />
  <!--! Font Awesome Free 6.1.1 by @fontawesome - https://fontawesome.com License - https://fontawesome.com/license/free (Icons: CC BY 4.0, Fonts: SIL OFL 1.1, Code: MIT License) Copyright 2022 Fonticons, Inc. -->
  <path
     id="path11443"
     style="fill:#ffffff;fill-opacity:1;stroke:none"
     d="M 256 0 C 132.3 0 32 35.82 32 80 L 32 128 C 32 172.2 132.3 208 256 208 C 379.7 208 480 172.2 480 128 L 480 80 C 480 35.82 379.7 0 256 0 z M 32 186.09961 L 32 288 C 32 332.2 132.3 368 256 368 C 272.80517 368 289.1557 367.31723 304.9043 366.06445 L 370.00586 300.95508 L 413.83008 344.76367 C 419.55424 342.73361 424.95633 340.58957 430.04297 338.34961 L 381.31836 289.63281 L 405.54492 265.40625 C 418.05837 252.89381 438.38108 252.89381 450.89453 265.40625 L 470.61523 285.14258 C 474.28726 288.81313 476.74868 293.18764 478.26562 297.80664 C 479.36663 294.59044 480 291.32278 480 288 L 480 186.09961 C 465.1 197.79961 445.09922 207.29922 425.19922 214.69922 C 380.29922 230.69922 320.5 240 256 240 C 191.5 240 131.65961 230.69922 86.849609 214.69922 C 66.019609 207.29922 46.93 197.79961 32 186.09961 z M 32 346.09961 L 32 432 C 32 473.43052 120.12538 507.48157 233.04297 511.58594 C 230.98828 511.01015 229.07328 509.83306 227.51953 508.05664 C 224.41109 505.40379 223.24795 500.85028 224.48828 496.5957 L 242.20508 436.38086 C 244.28731 429.32328 248.10581 422.86575 253.31641 417.66016 L 271.16602 399.80664 C 266.13927 399.92121 261.0903 400 256 400 C 191.5 400 131.65961 390.69922 86.849609 374.69922 C 66.019609 367.29922 46.93 357.79961 32 346.09961 z M 480 346.09961 C 465.57856 357.42383 446.37711 366.66795 427.11523 373.96094 L 318.35156 482.67969 C 313.14596 487.88528 306.68845 491.74077 299.63086 493.79297 L 239.40234 511.51172 C 238.94954 511.64616 238.48589 511.64173 238.02734 511.7207 C 243.96276 511.88913 249.94336 512 256 512 C 379.7 512 480 476.2 480 432 L 480 346.09961 z M 272.05078 432.87695 L 270.30469 434.62891 C 267.93714 437.03149 266.19992 439.93522 265.25391 443.13867 L 253.75195 482.2793 L 292.87305 470.76758 C 295.62601 469.81656 298.98023 468.06541 301.38281 465.71289 L 303.13477 463.96094 L 280.06055 463.96094 C 275.65582 463.96094 272.05078 460.3559 272.05078 455.95117 L 272.05078 432.87695 z " />
</svg>
