<?xml version="1.0" encoding="UTF-8" standalone="no"?>
<svg
   viewBox="0 0 512 512"
   version="1.1"
   id="svg831"
   sodipodi:docname="Icone.svg"
   width="512"
   height="512"
   inkscape:version="1.1 (c68e22c387, 2021-05-23)"
   xmlns:inkscape="http://www.inkscape.org/namespaces/inkscape"
   xmlns:sodipodi="http://sodipodi.sourceforge.net/DTD/sodipodi-0.dtd"
   xmlns="http://www.w3.org/2000/svg"
   xmlns:svg="http://www.w3.org/2000/svg">
  <defs
     id="defs835" />
  <sodipodi:namedview
     id="namedview833"
     pagecolor="#333333"
     bordercolor="#666666"
     borderopacity="1.0"
     inkscape:pageshadow="2"
     inkscape:pageopacity="0"
     inkscape:pagecheckerboard="0"
     showgrid="false"
     fit-margin-top="0"
     fit-margin-left="0"
     fit-margin-right="0"
     fit-margin-bottom="0"
     inkscape:zoom="0.8125"
     inkscape:cx="-30.769231"
     inkscape:cy="213.53846"
     inkscape:window-width="2560"
     inkscape:window-height="1017"
     inkscape:window-x="1358"
     inkscape:window-y="-8"
     inkscape:window-maximized="1"
     inkscape:current-layer="svg831" />
  <!--! Font Awesome Free 6.1.1 by @fontawesome - https://fontawesome.com License - https://fontawesome.com/license/free (Icons: CC BY 4.0, Fonts: SIL OFL 1.1, Code: MIT License) Copyright 2022 Fonticons, Inc. -->
  <path
     style="stroke-width:0.896588;fill:#00648c;fill-opacity:1"
     d="m 102.4,222.60687 h 307.2 v 80.38698 H 102.4 Z"
     id="path1075"
     inkscape:export-filename="D:\repos\HSA_Estoque48\Icone128x128.png"
     inkscape:export-xdpi="24"
     inkscape:export-ydpi="24" />
  <path
     style="stroke-width:0.896588;fill:#009296;fill-opacity:1"
     d="m 102.4,335.14864 h 307.2 v 64.30959 H 102.4 Z"
     id="path1073"
     inkscape:export-filename="D:\repos\HSA_Estoque48\Icone128x128.png"
     inkscape:export-xdpi="24"
     inkscape:export-ydpi="24" />
  <path
     style="stroke-width:0.896588;fill:#425563;fill-opacity:1"
     d="m 121.6,512 c -10.64,0 -19.2,-10.75176 -19.2,-24.11609 v -56.27089 h 307.2 v 56.27089 C 409.6,501.24824 401.04,512 390.4,512 Z"
     id="path1071"
     inkscape:export-filename="D:\repos\HSA_Estoque48\Icone128x128.png"
     inkscape:export-xdpi="24"
     inkscape:export-ydpi="24" />
  <path
     style="stroke-width:0.896588;fill:#203c89;fill-opacity:1"
     d="M 0,487.88391 V 169.65195 C 0,143.4257 12.744,119.71154 32.184,109.96462 L 246.48,2.2993188 c 6.08,-3.0657584 12.96,-3.0657584 19.04,0 L 479.84,109.96462 C 499.28,119.71154 512,143.4257 512,169.65195 V 487.88391 C 512,501.24824 503.44,512 492.8,512 h -38.4 c -10.64,0 -19.2,-10.75176 -19.2,-24.11609 V 221.70252 c 0,-16.88127 -11.44,-32.15479 -25.6,-32.15479 H 102.4 c -14.16,0 -25.6,15.27352 -25.6,32.15479 V 487.88391 C 76.8,501.24824 68.2,512 57.6,512 H 19.2 C 8.6,512 0,501.24824 0,487.88391 Z"
     id="path829"
     inkscape:export-filename="D:\repos\HSA_Estoque48\Icone128x128.png"
     inkscape:export-xdpi="24"
     inkscape:export-ydpi="24" />
</svg>
