<?xml version="1.0" encoding="UTF-8" standalone="no"?>
<svg
   viewBox="0 0 512 511.99999"
   version="1.1"
   id="svg962"
   sodipodi:docname="Pesquisar.svg"
   inkscape:version="1.1 (c68e22c387, 2021-05-23)"
   width="512"
   height="512"
   inkscape:export-filename="D:\repos\HSA_Estoque48\Pesquisar16x16.png"
   inkscape:export-xdpi="3"
   inkscape:export-ydpi="3"
   xmlns:inkscape="http://www.inkscape.org/namespaces/inkscape"
   xmlns:sodipodi="http://sodipodi.sourceforge.net/DTD/sodipodi-0.dtd"
   xmlns="http://www.w3.org/2000/svg"
   xmlns:svg="http://www.w3.org/2000/svg">
  <defs
     id="defs966" />
  <sodipodi:namedview
     id="namedview964"
     pagecolor="#373737"
     bordercolor="#666666"
     borderopacity="1.0"
     inkscape:pageshadow="2"
     inkscape:pageopacity="0"
     inkscape:pagecheckerboard="0"
     showgrid="false"
     inkscape:zoom="0.55864198"
     inkscape:cx="674.85082"
     inkscape:cy="203.17127"
     inkscape:window-width="2560"
     inkscape:window-height="1017"
     inkscape:window-x="1358"
     inkscape:window-y="-8"
     inkscape:window-maximized="1"
     inkscape:current-layer="svg962"
     lock-margins="true"
     fit-margin-top="0"
     fit-margin-left="0"
     fit-margin-right="0"
     fit-margin-bottom="0" />
  <!--! Font Awesome Free 6.1.1 by @fontawesome - https://fontawesome.com License - https://fontawesome.com/license/free (Icons: CC BY 4.0, Fonts: SIL OFL 1.1, Code: MIT License) Copyright 2022 Fonticons, Inc. -->
  <path
     id="path960"
     style="fill:#0f0f0f;fill-opacity:1;stroke:none;stroke-width:0.984502"
     d="M 204.48489,0.03707994 C 175.75238,0.60173984 147.13873,7.1422948 121.07186,19.259151 91.549773,32.924137 65.330551,53.622578 45.132729,79.12041 c -19.444416,24.48323 -33.293608,53.3914 -40.0864651,83.91526 -6.3026685,28.24264 -6.6375068,57.78057 -1.1651007,86.18681 5.4621243,27.93438 16.9325388,54.63502 33.1913828,77.98216 22.640822,32.59279 54.547814,58.73361 91.137314,74.16272 19.9911,8.45763 41.34835,13.6556 62.98738,15.35523 29.73055,2.46049 60.00136,-1.39577 88.07748,-11.52121 15.15981,-5.4494 29.68426,-12.66959 43.17852,-21.46908 38.77542,38.77213 77.53996,77.5556 116.33413,116.30868 8.38305,8.08437 20.16085,12.46972 31.78785,11.91152 10.782,-0.45037 21.32758,-5.10372 28.8848,-12.81616 7.82116,-7.87022 12.40578,-18.8378 12.50494,-29.93417 0.17205,-11.25449 -4.19628,-22.54512 -12.07833,-30.60946 -3.01863,-3.10278 -6.11448,-6.09844 -9.15573,-9.18377 -35.67027,-35.67026 -71.34053,-71.34053 -107.01081,-107.0108 18.17032,-27.81922 29.50626,-60.06594 32.70274,-93.14167 2.22452,-22.85231 0.76438,-46.07529 -4.42602,-68.44559 -6.96894,-29.68682 -20.7552,-57.69932 -39.75999,-81.526311 C 349.54782,50.756818 319.44275,28.108916 285.57107,14.581485 265.52017,6.538267 244.17102,1.7751617 222.61052,0.44799444 216.5782,0.05418674 210.529,-0.07087616 204.48489,0.03707994 Z m 3.36729,86.59358606 c 2.17955,0.01064 4.37266,0.05857 6.47263,0.17455 7.18793,0.376264 14.34168,1.392326 21.35216,3.023503 0.64725,0.161831 1.41206,0.33314 2.08525,0.510278 2.64735,0.668588 5.41968,1.47138 7.92044,2.289702 4.19325,1.376335 8.44474,3.02746 12.3826,4.813425 7.17117,3.251486 14.02337,7.201956 20.44216,11.761456 0.53617,0.40039 1.33786,0.96232 1.96879,1.43901 9.68209,7.19345 18.29612,15.81896 25.4887,25.50116 0.43644,0.59983 1.05653,1.43215 1.54812,2.13571 12.26851,17.26139 19.91751,37.77435 21.87334,58.86521 0.3646,3.8472 0.54853,7.92614 0.5408,11.87853 -0.006,3.00394 -0.14078,6.17925 -0.3509,9.06611 -0.27357,3.49993 -0.69345,7.04404 -1.25449,10.435 -0.30243,1.84023 -0.68652,3.9021 -1.10295,5.81349 -3.86704,18.14564 -12.01382,35.34491 -23.51929,49.89332 -0.36725,0.4606 -0.94742,1.17588 -1.39633,1.73417 -13.8976,16.98823 -32.41907,30.17143 -53.08019,37.60399 -1.16166,0.41971 -2.55437,0.90167 -3.81888,1.30765 -4.69001,1.52154 -9.47333,2.75339 -14.31367,3.69232 -1.78136,0.33797 -3.7656,0.68161 -5.63811,0.95107 -2.25849,0.32657 -4.72326,0.6144 -7.07357,0.81395 -6.07435,0.52257 -12.18782,0.58462 -18.27271,0.20804 -1.93862,-0.1305 -4.0717,-0.29715 -6.07794,-0.53246 -7.7586,-0.87932 -15.62134,-2.5429 -23.13724,-4.94384 -0.97433,-0.32259 -1.84007,-0.58897 -2.74063,-0.91138 -21.97829,-7.53825 -41.65037,-21.56112 -56.04288,-39.79201 -3.07998,-3.88242 -5.98915,-8.05822 -8.52752,-12.22372 -4.467923,-7.31143 -8.155523,-15.09744 -10.992222,-23.18251 -0.53648,-1.55691 -1.120235,-3.32509 -1.619487,-4.98171 -0.619205,-2.05131 -1.181302,-4.11948 -1.697795,-6.19898 -0.171268,-0.75809 -0.432532,-1.79511 -0.617003,-2.66741 -4.015233,-18.12969 -3.82013,-37.17531 0.559311,-55.22062 0.123143,-0.46169 0.323826,-1.27279 0.476676,-1.86834 0.399148,-1.56717 0.915995,-3.36383 1.41749,-5.02575 6.815117,-22.32747 20.24903,-42.55436 38.10571,-57.58004 5.10126,-4.31077 10.55637,-8.20256 16.29009,-11.62723 0.58387,-0.33502 1.288,-0.76374 1.8939,-1.10426 1.48505,-0.84882 2.92615,-1.63579 4.50278,-2.45258 2.48943,-1.287289 4.9662,-2.46564 7.4961,-3.563677 3.13418,-1.361461 6.38209,-2.612011 9.55512,-3.679405 1.7305,-0.583472 3.66931,-1.186859 5.50083,-1.710475 1.94117,-0.54778 4.13427,-1.119243 6.19925,-1.586112 2.96344,-0.683979 5.99367,-1.245597 8.92861,-1.691837 1.60136,-0.240824 3.41734,-0.480886 5.11049,-0.658708 1.82575,-0.202113 3.62664,-0.344436 5.39713,-0.462438 2.58541,-0.162838 5.17491,-0.239298 7.76533,-0.246152 z" />
</svg>
